<svg width="24" height="24" viewBox="0 0 24 24" fill="none" xmlns="http://www.w3.org/2000/svg">
<path d="M19.4561 10.59C19.4561 15.3207 15.5619 19.1801 10.728 19.1801V21.1801C16.6394 21.1801 21.4561 16.4522 21.4561 10.59H19.4561ZM10.728 19.1801C5.89415 19.1801 2 15.3207 2 10.59H0C0 16.4522 4.81662 21.1801 10.728 21.1801V19.1801ZM2 10.59C2 5.85931 5.89415 2 10.728 2V0C4.81662 0 0 4.72789 0 10.59H2ZM10.728 2C15.5619 2 19.4561 5.85931 19.4561 10.59H21.4561C21.4561 4.72789 16.6394 0 10.728 0V2ZM16.8935 18.3843L22.298 23.7121L23.702 22.2879L18.2976 16.9601L16.8935 18.3843Z" fill="#DDDDDD"/>
</svg>
