<svg width="32" height="30" viewBox="0 0 32 30" fill="none" xmlns="http://www.w3.org/2000/svg">
<path d="M0 5.22948C0 2.34132 2.39462 0 5.34853 0H13.3713C16.3252 0 18.7199 2.34132 18.7199 5.22948V22.2705C18.7199 25.1587 16.3252 27.5 13.3713 27.5H5.34853C2.39462 27.5 0 25.1587 0 22.2705V5.22948Z" fill="white"/>
<path d="M16.0543 28.9927L17.3765 29.5591C20.0821 30.7181 23.2364 29.5132 24.4219 26.8678L31.2157 11.7068C32.4012 9.06136 31.1688 5.97725 28.4632 4.81821L21.3191 1.75779C21.3379 1.93599 21.3475 2.11684 21.3475 2.29988V23.7635C21.3475 26.6336 18.9827 28.9637 16.0543 28.9927Z" fill="white"/>
</svg>
