<svg width="16" height="16" viewBox="0 0 16 16" fill="none" xmlns="http://www.w3.org/2000/svg">
<g clip-path="url(#clip0_92_70)">
<rect x="0.5" y="0.5" width="15" height="15" rx="7.5" stroke="#1C1C1C"/>
<path d="M8.02906 12.1528C7.62712 12.1528 7.23245 12.1096 6.84504 12.0232C6.45763 11.9319 6.10412 11.8191 5.7845 11.6846C5.46973 11.5453 5.20823 11.4036 5 11.2596C5.00484 11.1251 5.0339 10.981 5.08717 10.8274C5.14528 10.6737 5.21792 10.532 5.30508 10.4023C5.39709 10.2679 5.49395 10.1694 5.59564 10.107C5.92494 10.3231 6.30508 10.5128 6.73608 10.6761C7.17191 10.8346 7.59806 10.9138 8.01453 10.9138C8.42615 10.9186 8.76513 10.8346 9.03148 10.6617C9.29782 10.4888 9.43341 10.2391 9.43826 9.91249C9.4431 9.64835 9.3632 9.41543 9.19855 9.21373C9.0339 9.00722 8.76998 8.84154 8.40678 8.71667L6.99758 8.21962C6.47458 8.03232 6.05569 7.76819 5.74092 7.42722C5.42615 7.08624 5.26877 6.65402 5.26877 6.13055C5.26877 5.67912 5.38257 5.27572 5.61017 4.92033C5.84261 4.56495 6.16465 4.28641 6.57627 4.08471C6.98789 3.8782 7.46489 3.77495 8.00726 3.77495C8.55932 3.77495 9.06537 3.83978 9.52542 3.96945C9.98547 4.09431 10.3898 4.25039 10.7385 4.43769C10.7385 4.63939 10.6877 4.8483 10.586 5.06441C10.4891 5.28052 10.3632 5.45821 10.2082 5.59748C9.87409 5.41499 9.52784 5.27331 9.16949 5.17246C8.81598 5.07161 8.46489 5.02118 8.11622 5.02118C7.71913 5.02118 7.40194 5.10763 7.16465 5.28052C6.92736 5.4486 6.80872 5.67912 6.80872 5.97207C6.80872 6.25061 6.90073 6.46192 7.08475 6.606C7.27361 6.74527 7.51574 6.86773 7.81114 6.97338L9.14044 7.45603C9.70702 7.65773 10.1574 7.95068 10.4915 8.33488C10.8305 8.71908 11 9.21853 11 9.83325C11 10.2799 10.8789 10.6809 10.6368 11.0363C10.3947 11.3868 10.0508 11.6606 9.60533 11.8575C9.15981 12.0544 8.63438 12.1528 8.02906 12.1528ZM7.94189 13C7.69492 13 7.49395 12.9808 7.33898 12.9424V11.7422H8.53753V12.9424C8.39225 12.9808 8.1937 13 7.94189 13ZM7.48426 4.23598V3.05763C7.56659 3.03842 7.66102 3.02401 7.76755 3.01441C7.87893 3.0048 7.98547 3 8.08717 3C8.18886 3 8.29298 3.0048 8.39952 3.01441C8.5109 3.02401 8.60775 3.03842 8.69007 3.05763V4.23598H7.48426Z" fill="#1C1C1C"/>
</g>
<defs>
<clipPath id="clip0_92_70">
<rect width="16" height="16" fill="white"/>
</clipPath>
</defs>
</svg>
