<svg width="13" height="15" viewBox="0 0 13 15" fill="none" xmlns="http://www.w3.org/2000/svg">
<mask id="path-1-inside-1_92_36" fill="white">
<path d="M13 6.21951C13 12.2561 6.5 15 6.5 15C6.5 15 0 12.0732 0 6.21951C0 2.78457 2.91015 0 6.5 0C10.0899 0 13 2.78457 13 6.21951Z"/>
</mask>
<path d="M6.5 15L6.08942 15.9118L6.4871 16.0909L6.88891 15.9213L6.5 15ZM12 6.21951C12 8.84431 10.5938 10.7891 9.08664 12.1252C8.33683 12.7899 7.58304 13.2836 7.0159 13.6108C6.73338 13.7738 6.49998 13.8938 6.34039 13.9718C6.26067 14.0107 6.1996 14.039 6.16029 14.0568C6.14064 14.0657 6.12646 14.072 6.11812 14.0757C6.11395 14.0775 6.11125 14.0786 6.11006 14.0792C6.10947 14.0794 6.10925 14.0795 6.10942 14.0794C6.10951 14.0794 6.10969 14.0793 6.10997 14.0792C6.11011 14.0791 6.11039 14.079 6.11046 14.079C6.11076 14.0789 6.11109 14.0787 6.5 15C6.88891 15.9213 6.88929 15.9211 6.88969 15.9209C6.88986 15.9209 6.89029 15.9207 6.89063 15.9205C6.8913 15.9203 6.89207 15.9199 6.89294 15.9196C6.89469 15.9188 6.89683 15.9179 6.89936 15.9168C6.90442 15.9146 6.91104 15.9118 6.91917 15.9082C6.93543 15.9011 6.95775 15.8912 6.98571 15.8786C7.04161 15.8532 7.12019 15.8167 7.21821 15.7688C7.41408 15.6732 7.6885 15.5317 8.01535 15.3431C8.66696 14.9672 9.53817 14.3976 10.4134 13.6218C12.1562 12.0767 14 9.6313 14 6.21951H12ZM6.5 15C6.91058 14.0882 6.91089 14.0883 6.91117 14.0884C6.91123 14.0885 6.91149 14.0886 6.91162 14.0886C6.91187 14.0888 6.91202 14.0888 6.91208 14.0889C6.91219 14.0889 6.91192 14.0888 6.91126 14.0885C6.90996 14.0879 6.90714 14.0866 6.90285 14.0846C6.89428 14.0806 6.87985 14.0738 6.85995 14.0643C6.82015 14.0452 6.75855 14.0149 6.67828 13.9736C6.51759 13.8909 6.28296 13.7643 5.99911 13.5939C5.42937 13.2518 4.67228 12.74 3.9192 12.0618C2.40003 10.6937 1 8.74738 1 6.21951H-1C-1 9.5453 0.849969 11.9892 2.5808 13.548C3.45272 14.3332 4.32063 14.9189 4.96964 15.3086C5.29517 15.504 5.56835 15.6517 5.76313 15.752C5.86059 15.8021 5.93864 15.8405 5.99405 15.8671C6.02176 15.8804 6.04383 15.8908 6.05985 15.8983C6.06787 15.902 6.07437 15.905 6.07931 15.9072C6.08179 15.9084 6.08387 15.9093 6.08556 15.9101C6.0864 15.9105 6.08714 15.9108 6.08779 15.9111C6.08811 15.9112 6.08852 15.9114 6.08868 15.9115C6.08906 15.9117 6.08942 15.9118 6.5 15ZM1 6.21951C1 3.37797 3.4204 1 6.5 1V-1C2.39989 -1 -1 2.19117 -1 6.21951H1ZM6.5 1C9.5796 1 12 3.37797 12 6.21951H14C14 2.19117 10.6001 -1 6.5 -1V1Z" fill="#1C1C1C" mask="url(#path-1-inside-1_92_36)"/>
</svg>
