<svg width="242" height="242" viewBox="0 0 242 242" fill="none" xmlns="http://www.w3.org/2000/svg">
<path d="M14.1368 101.023C-3.5656 136.134 -0.0389929 165.737 5.53399 178.46C9.54982 187.63 21.0236 192.917 29.9568 186.225" fill="white"/>
<path d="M152.153 109.392C165.102 160.697 204.522 160.201 222.225 155.823C243.861 150.453 251.237 122.776 220.094 121.041C205.014 120.215 181.739 114.515 181.739 85.6816C181.739 38.9208 144.121 1 97.7341 1C51.3472 1 13.6476 38.9208 13.6476 85.6816C13.6476 141.695 35.8576 241 72.6556 241C82.4084 241 92.5709 228.194 105.192 228.194C117.813 228.194 123.386 239.43 139.777 239.43C156.168 239.43 160.758 217.041 174.608 217.041C188.459 217.041 200.179 225.468 216.898 216.133C233.616 206.797 234.764 188.787 222.471 169.785C220.012 166.067 216.547 161.388 213.269 157.34" fill="white"/>
<path d="M71.2624 79.6506C71.2624 87.747 64.7879 94.2737 56.7563 94.2737C48.7246 94.2737 42.2501 87.747 42.2501 79.6506" fill="white"/>
<path d="M122.321 79.6506C122.321 87.747 115.846 94.2737 107.815 94.2737C99.783 94.2737 93.3085 87.747 93.3085 79.6506" fill="white"/>
<path d="M78.2957 130.725C93.5395 115.359 111.406 127.916 111.406 127.916L78.2957 130.725Z" fill="white"/>
<path d="M14.5833 101.248C14.7076 101.001 14.6085 100.7 14.3619 100.576C14.1153 100.452 13.8147 100.551 13.6904 100.797L14.5833 101.248ZM5.53399 178.46L5.992 178.259L5.99198 178.259L5.53399 178.46ZM30.2565 186.626C30.4775 186.46 30.5225 186.147 30.3569 185.926C30.1914 185.705 29.878 185.66 29.657 185.825L30.2565 186.626ZM152.637 109.27C152.57 109.002 152.298 108.84 152.03 108.908C151.762 108.975 151.6 109.247 151.668 109.515L152.637 109.27ZM222.225 155.823L222.345 156.308L222.345 156.308L222.225 155.823ZM220.094 121.041L220.122 120.542L220.121 120.542L220.094 121.041ZM222.471 169.785L222.89 169.513L222.888 169.509L222.471 169.785ZM213.658 157.025C213.484 156.81 213.169 156.777 212.954 156.951C212.74 157.125 212.707 157.44 212.88 157.654L213.658 157.025ZM71.7624 79.6506C71.7624 79.3745 71.5386 79.1506 71.2624 79.1506C70.9863 79.1506 70.7624 79.3745 70.7624 79.6506H71.7624ZM42.7501 79.6506C42.7501 79.3745 42.5263 79.1506 42.2501 79.1506C41.974 79.1506 41.7501 79.3745 41.7501 79.6506H42.7501ZM122.821 79.6506C122.821 79.3745 122.597 79.1506 122.321 79.1506C122.045 79.1506 121.821 79.3745 121.821 79.6506H122.821ZM93.8085 79.6506C93.8085 79.3745 93.5846 79.1506 93.3085 79.1506C93.0323 79.1506 92.8085 79.3745 92.8085 79.6506H93.8085ZM77.9408 130.373C77.7463 130.569 77.7476 130.886 77.9436 131.08C78.1396 131.275 78.4562 131.273 78.6507 131.077L77.9408 130.373ZM111.118 128.325C111.344 128.484 111.656 128.43 111.815 128.204C111.974 127.978 111.919 127.666 111.693 127.507L111.118 128.325ZM71.8512 79.4072C71.7601 79.1466 71.4749 79.0091 71.2142 79.1002C70.9535 79.1913 70.8161 79.4765 70.9072 79.7372L71.8512 79.4072ZM70.7755 111.131L70.3443 110.877L69.6039 112.139L70.9615 111.595L70.7755 111.131ZM87.5445 104.948C87.8008 104.845 87.9253 104.554 87.8226 104.298C87.7199 104.041 87.4288 103.917 87.1725 104.019L87.5445 104.948ZM13.6904 100.797C-4.07228 136.029 -0.562664 165.787 5.076 178.66L5.99198 178.259C0.484678 165.686 -3.05892 136.24 14.5833 101.248L13.6904 100.797ZM5.07598 178.66C7.13778 183.368 11.1127 187.082 15.7305 188.761C20.3605 190.444 25.6421 190.082 30.2565 186.626L29.657 185.825C25.3383 189.06 20.4164 189.401 16.0722 187.821C11.7159 186.237 7.94603 182.721 5.992 178.259L5.07598 178.66ZM151.668 109.515C158.176 135.3 171.364 148.14 185.213 153.95C199.031 159.747 213.43 158.513 222.345 156.308L222.105 155.337C213.317 157.511 199.154 158.714 185.6 153.028C172.075 147.354 159.078 134.789 152.637 109.27L151.668 109.515ZM222.345 156.308C233.321 153.584 240.772 145.179 241.45 137.111C241.79 133.056 240.412 129.108 236.937 126.076C233.475 123.056 227.974 120.98 220.122 120.542L220.066 121.541C227.785 121.971 233.041 124.005 236.279 126.829C239.504 129.642 240.768 133.274 240.453 137.027C239.82 144.574 232.764 152.692 222.104 155.337L222.345 156.308ZM220.121 120.542C212.615 120.131 203.133 118.507 195.538 113.448C187.979 108.411 182.239 99.9368 182.239 85.6816H181.239C181.239 100.259 187.136 109.052 194.984 114.28C202.798 119.486 212.492 121.126 220.066 121.541L220.121 120.542ZM182.239 85.6816C182.239 38.6485 144.401 0.5 97.7341 0.5V1.5C143.841 1.5 181.239 39.1932 181.239 85.6816H182.239ZM97.7341 0.5C51.0679 0.5 13.1476 38.6478 13.1476 85.6816H14.1476C14.1476 39.1938 51.6265 1.5 97.7341 1.5V0.5ZM13.1476 85.6816C13.1476 113.739 18.7078 152.62 28.876 184.498C33.9595 200.435 40.2046 214.654 47.5042 224.899C54.7946 235.131 63.2128 241.5 72.6556 241.5V240.5C63.6995 240.5 55.5421 234.456 48.3186 224.318C41.1044 214.193 34.8974 200.085 29.8287 184.194C19.6923 152.416 14.1476 113.638 14.1476 85.6816H13.1476ZM72.6556 241.5C75.2006 241.5 77.7426 240.665 80.294 239.451C82.8429 238.237 85.4486 236.62 88.1053 235.026C93.4555 231.817 99.0387 228.694 105.192 228.694V227.694C98.7242 227.694 92.9155 230.975 87.591 234.168C84.9103 235.776 82.358 237.36 79.8641 238.548C77.3726 239.734 74.987 240.5 72.6556 240.5V241.5ZM105.192 228.694C111.348 228.694 115.779 231.424 120.827 234.249C125.866 237.068 131.45 239.93 139.777 239.93V238.93C131.714 238.93 126.316 236.174 121.315 233.376C116.324 230.583 111.657 227.694 105.192 227.694V228.694ZM139.777 239.93C148.227 239.93 153.611 234.143 158.521 228.566C160.997 225.753 163.348 222.995 165.939 220.931C168.518 218.876 171.295 217.541 174.608 217.541V216.541C170.997 216.541 168.006 218.005 165.316 220.149C162.639 222.282 160.221 225.121 157.77 227.905C152.825 233.523 147.719 238.93 139.777 238.93V239.93ZM174.608 217.541C178.022 217.541 181.314 218.061 184.613 218.703C187.897 219.343 191.215 220.111 194.608 220.583C201.435 221.533 208.662 221.304 217.141 216.569L216.654 215.696C208.415 220.297 201.422 220.522 194.746 219.593C191.388 219.125 188.135 218.37 184.804 217.721C181.487 217.075 178.12 216.541 174.608 216.541V217.541ZM217.141 216.569C225.63 211.829 230.203 204.856 231.061 196.635C231.917 188.44 229.075 179.073 222.89 169.513L222.051 170.056C228.159 179.499 230.891 188.638 230.066 196.532C229.245 204.4 224.884 211.1 216.654 215.696L217.141 216.569ZM222.888 169.509C220.419 165.776 216.944 161.083 213.658 157.025L212.88 157.654C216.151 161.692 219.605 166.359 222.053 170.061L222.888 169.509ZM70.7624 79.6506C70.7624 87.4746 64.508 93.7737 56.7563 93.7737V94.7737C65.0678 94.7737 71.7624 88.0193 71.7624 79.6506H70.7624ZM56.7563 93.7737C49.0045 93.7737 42.7501 87.4746 42.7501 79.6506H41.7501C41.7501 88.0193 48.4447 94.7737 56.7563 94.7737V93.7737ZM121.821 79.6506C121.821 87.4746 115.566 93.7737 107.815 93.7737V94.7737C116.126 94.7737 122.821 88.0193 122.821 79.6506H121.821ZM107.815 93.7737C100.063 93.7737 93.8085 87.4746 93.8085 79.6506H92.8085C92.8085 88.0193 99.503 94.7737 107.815 94.7737V93.7737ZM78.6507 131.077C86.131 123.537 94.2273 122.855 100.473 124.049C103.604 124.648 106.271 125.72 108.156 126.643C109.098 127.105 109.842 127.528 110.35 127.835C110.603 127.988 110.798 128.112 110.927 128.197C110.992 128.24 111.041 128.273 111.073 128.294C111.089 128.305 111.101 128.313 111.108 128.319C111.112 128.321 111.115 128.323 111.117 128.324C111.117 128.325 111.118 128.325 111.118 128.325C111.118 128.325 111.118 128.326 111.118 128.326C111.118 128.326 111.118 128.325 111.406 127.916C111.693 127.507 111.693 127.507 111.693 127.507C111.693 127.507 111.692 127.506 111.692 127.506C111.691 127.506 111.69 127.505 111.688 127.504C111.686 127.502 111.682 127.499 111.677 127.496C111.667 127.489 111.653 127.48 111.635 127.467C111.599 127.442 111.545 127.407 111.476 127.361C111.336 127.27 111.132 127.139 110.867 126.979C110.338 126.659 109.567 126.221 108.596 125.745C106.655 124.794 103.902 123.687 100.661 123.067C94.1629 121.825 85.7042 122.547 77.9408 130.373L78.6507 131.077ZM70.9072 79.7372C76.2098 94.9099 72.6994 106.865 70.3443 110.877L71.2067 111.384C73.7127 107.115 77.2492 94.8529 71.8512 79.4072L70.9072 79.7372ZM70.9615 111.595L87.5445 104.948L87.1725 104.019L70.5895 110.666L70.9615 111.595Z" fill="#DDDDDD"/>
</svg>
