<svg width="34" height="29" viewBox="0 0 34 29" fill="none" xmlns="http://www.w3.org/2000/svg">
<path d="M3 19L17 27L31 19" stroke="#FFFFF7" stroke-width="2" stroke-linecap="round"/>
<path d="M7.30035 8.2832C7.17047 6.86816 6.04254 5.67871 4.19 5.67871C2.14606 5.67871 0.806211 7.12109 0.806211 9.4043C0.806211 11.7285 2.14606 13.1367 4.20367 13.1367C5.93316 13.1367 7.1568 12.0977 7.31402 10.5664L5.89215 10.5664C5.72125 11.4004 5.12652 11.8994 4.21734 11.8994C3.06891 11.8994 2.31012 10.9834 2.31012 9.4043C2.31012 7.85938 3.06207 6.90918 4.20367 6.90918C5.16754 6.90918 5.74176 7.51758 5.89215 8.2832L7.30035 8.2832ZM8.69461 13H10.1712L10.1712 3.13574L8.69461 3.13574L8.69461 13ZM15.0586 13.1367C17.1162 13.1367 18.4697 11.7217 18.4697 9.4043C18.4697 7.09375 17.1094 5.67871 15.0586 5.67871C13.0078 5.67871 11.6475 7.09375 11.6475 9.4043C11.6475 11.7217 13.001 13.1367 15.0586 13.1367ZM15.0586 11.9199C13.9033 11.9199 13.1514 11.0039 13.1514 9.4043C13.1514 7.81152 13.9033 6.89551 15.0586 6.89551C16.2139 6.89551 16.9658 7.81152 16.9658 9.4043C16.9658 11.0039 16.2207 11.9199 15.0586 11.9199ZM19.7614 7.8457C19.7614 8.8916 20.4382 9.54785 21.8054 9.8623L22.9743 10.1357C23.7605 10.3135 24.0271 10.5869 24.0271 11.0518C24.0271 11.6396 23.4802 12.0088 22.5915 12.0088C21.6892 12.0088 21.1765 11.6396 21.0398 10.8877H19.5769C19.7136 12.2549 20.7937 13.1367 22.5915 13.1367C24.2868 13.1367 25.5105 12.2344 25.5105 10.9219C25.5105 9.88281 24.9499 9.30859 23.4802 8.9668L22.3113 8.7002C21.532 8.52246 21.2038 8.21484 21.2038 7.76367C21.2038 7.18945 21.737 6.7998 22.5368 6.7998C23.364 6.7998 23.8767 7.2373 23.9587 7.93457H25.3464C25.2986 6.6084 24.2116 5.67871 22.5368 5.67871C20.8825 5.67871 19.7614 6.56055 19.7614 7.8457ZM31.7036 10.8877C31.5053 11.5166 30.8832 11.9404 30.0424 11.9404C28.8598 11.9404 28.1079 11.1133 28.1079 9.8623V9.77344H33.187V9.26758C33.187 7.08691 31.9428 5.67871 29.9467 5.67871C27.9164 5.67871 26.6176 7.18262 26.6176 9.43848C26.6176 11.708 27.8959 13.1367 30.0082 13.1367C31.6557 13.1367 32.8998 12.2002 33.1049 10.8877H31.7036ZM29.9467 6.86816C30.9789 6.86816 31.6762 7.64063 31.7104 8.74121H28.1147C28.1899 7.6543 28.9145 6.86816 29.9467 6.86816Z" fill="#FFFFF7"/>
</svg>
