<svg width="50" height="50" viewBox="0 0 50 50" fill="none" xmlns="http://www.w3.org/2000/svg">
<circle cx="25" cy="25" r="25" fill="white"/>
<path d="M16.3171 20.8058C16.3171 15.9425 20.2046 12 25 12C29.7954 12 33.6829 15.9425 33.6829 20.8058V21.4257C33.6829 25.0909 34.7822 28.6693 36.8348 31.6859L37.8409 33.1644C38.2486 33.7636 37.8257 34.5806 37.1079 34.5806H12.8922C12.1743 34.5806 11.7514 33.7636 12.1591 33.1644L13.1652 31.6859C15.2178 28.6693 16.3171 25.0909 16.3171 21.4257V20.8058Z" fill="#1C1C1C"/>
<path d="M25.4453 40C27.4128 40 29.0078 38.3824 29.0078 36.3871H21.8828C21.8828 38.3824 23.4778 40 25.4453 40Z" fill="#1C1C1C"/>
<path d="M22.3594 34.5806C22.9754 33.5007 24.1267 32.7742 25.4453 32.7742C26.7639 32.7742 27.9152 33.5007 28.5312 34.5806H22.3594Z" fill="#1C1C1C"/>
<circle cx="36" cy="15" r="9" fill="#FE603F" stroke="white" stroke-width="2"/>
</svg>
