<svg width="51" height="50" viewBox="0 0 51 50" fill="none" xmlns="http://www.w3.org/2000/svg">
<path d="M25.1182 16.9673L25.5773 18.0317L26.0364 16.9673C27.1721 14.3341 29.7636 12.5006 32.7714 12.5006C36.7842 12.5006 39.7459 15.8625 40.121 19.9943L40.1234 20.0203L40.1279 20.0432L40.128 20.0437L40.128 20.0438L40.1282 20.0447L40.1285 20.0467C40.1288 20.0482 40.1291 20.0502 40.1296 20.0528C40.1303 20.0575 40.1313 20.0638 40.1325 20.0719C40.1362 20.0969 40.1416 20.1379 40.1471 20.1948C40.158 20.3085 40.1691 20.4852 40.1666 20.7218C40.1617 21.1947 40.1026 21.9081 39.8785 22.8362L39.8785 22.8362C39.27 25.3577 37.8374 27.6072 35.8956 29.3292C35.895 29.3297 35.8945 29.3302 35.894 29.3306L27.2561 36.8691C26.286 37.7157 24.8793 37.7097 23.9158 36.8544L15.4402 29.3302L15.4399 29.33C13.4974 27.6084 12.0641 25.3578 11.4554 22.8356L11.4554 22.8356C11.2314 21.9075 11.1723 21.1941 11.1673 20.7212C11.1649 20.4846 11.176 20.3079 11.1869 20.1942C11.1924 20.1374 11.1978 20.0963 11.2015 20.0713C11.2033 20.0589 11.2047 20.0504 11.2054 20.0461L11.2059 20.0432L11.206 20.0432L11.2061 20.0426L11.2106 20.0198L11.2129 19.9937C11.5881 15.8619 14.5498 12.5 18.5626 12.5C21.5577 12.5 23.9768 14.3211 25.1182 16.9673Z" fill="white" stroke="white"/>
</svg>
