<svg width="51" height="50" viewBox="0 0 51 50" fill="none" xmlns="http://www.w3.org/2000/svg">
<mask id="path-1-inside-1_23_474" fill="white">
<path d="M38.1902 23.0244C38.1902 31.2727 31.9821 36.3413 28.3411 38.6047C26.7505 39.5935 24.7835 39.5694 23.2079 38.5568C19.5705 36.2192 13.333 31.0417 13.333 23.0244C13.333 16.3835 18.8975 11 25.7616 11C32.6257 11 38.1902 16.3835 38.1902 23.0244Z"/>
</mask>
<path d="M28.3411 38.6047L27.8132 37.7554L28.3411 38.6047ZM23.2079 38.5568L22.6673 39.3981L22.6673 39.3981L23.2079 38.5568ZM37.1902 23.0244C37.1902 30.7259 31.3863 35.5342 27.8132 37.7554L28.8691 39.454C32.5779 37.1484 39.1902 31.8195 39.1902 23.0244H37.1902ZM27.8132 37.7554C26.5539 38.5382 25.0028 38.5217 23.7486 37.7156L22.6673 39.3981C24.5642 40.6172 26.9471 40.6487 28.8691 39.454L27.8132 37.7554ZM23.7486 37.7156C20.1617 35.4104 14.333 30.4935 14.333 23.0244H12.333C12.333 31.59 18.9794 37.028 22.6673 39.3981L23.7486 37.7156ZM14.333 23.0244C14.333 16.9667 19.4183 12 25.7616 12V10C18.3766 10 12.333 15.8003 12.333 23.0244H14.333ZM25.7616 12C32.1048 12 37.1902 16.9667 37.1902 23.0244H39.1902C39.1902 15.8003 33.1466 10 25.7616 10V12Z" fill="white" mask="url(#path-1-inside-1_23_474)"/>
</svg>
