<svg width="50" height="50" viewBox="0 0 50 50" fill="none" xmlns="http://www.w3.org/2000/svg">
<path d="M30.4809 13.4541L30.4809 13.4541C33.2625 14.5635 35.5539 16.5652 36.9687 19.1144L36.9687 19.1144C38.3835 21.6632 38.8358 24.6031 38.2509 27.4348C37.6657 30.2669 36.0784 32.82 33.7541 34.6568L33.7541 34.6568C31.43 36.4941 28.5128 37.5 25.5001 37.5H13.4086C13.055 37.5 12.7495 37.2961 12.622 37.0032C12.496 36.7134 12.56 36.3767 12.7959 36.1456L14.4183 34.5574L14.4183 34.5573C15.11 33.8801 15.1713 32.6813 14.5158 31.6855L14.5158 31.6855C13.4366 30.0462 12.7624 28.1774 12.5624 26.2233C12.2687 23.3506 13.018 20.4668 14.6861 18.0627L14.6861 18.0626C16.3541 15.6582 18.8395 13.8814 21.7211 13.0398L21.7211 13.0398C24.6031 12.1978 27.6993 12.3445 30.4809 13.4541Z" stroke="white"/>
</svg>
