<svg width="64" height="64" viewBox="0 0 64 64" fill="none" xmlns="http://www.w3.org/2000/svg">
<path d="M29.8912 2.08421C31.0598 0.929194 32.9402 0.929195 34.1088 2.08421L41.7084 9.59504C42.1832 10.0643 42.8009 10.3618 43.4638 10.4404L54.0743 11.6991C55.7059 11.8926 56.8783 13.3627 56.7039 14.9966L55.57 25.6211C55.4991 26.2848 55.6517 26.9533 56.0035 27.5206L61.635 36.6009C62.501 37.9973 62.0826 39.8305 60.6965 40.7128L51.6829 46.4505C51.1198 46.809 50.6923 47.3451 50.4681 47.9739L46.88 58.0382C46.3282 59.5859 44.6341 60.4018 43.08 59.8682L32.9742 56.3985C32.3428 56.1817 31.6572 56.1817 31.0258 56.3985L20.92 59.8682C19.3659 60.4018 17.6718 59.5859 17.12 58.0382L13.5319 47.9739C13.3077 47.3451 12.8802 46.809 12.3171 46.4505L3.30352 40.7128C1.91741 39.8305 1.499 37.9973 2.365 36.6009L7.99646 27.5206C8.3483 26.9533 8.50087 26.2848 8.43002 25.6211L7.29606 14.9966C7.12168 13.3627 8.29405 11.8926 9.92573 11.6991L20.5362 10.4404C21.1991 10.3618 21.8168 10.0643 22.2916 9.59504L29.8912 2.08421Z" fill="#85A0E5"/>
<path d="M24.6327 38.6834C27.8583 38.6834 29.7919 36.1697 29.7919 31.9422C29.7919 27.2401 27.2694 25.4822 24.6678 25.4822C21.9256 25.4822 19.9305 27.3367 19.9305 29.9207C19.9305 32.3729 21.7674 34.0779 24.1405 34.0779C25.784 34.0779 27.0848 33.2518 27.577 32.0213H27.6122C27.6122 34.9744 26.6454 36.8465 24.6503 36.8465C23.4901 36.8465 22.6376 36.3192 22.3211 35.3172H20.0711C20.4227 37.3211 22.2596 38.6834 24.6327 38.6834ZM24.6678 32.3201C23.2264 32.3201 22.1542 31.283 22.1542 29.8328C22.1542 28.4442 23.2792 27.3455 24.6942 27.3455C26.1268 27.3455 27.2342 28.4529 27.2342 29.8768C27.2342 31.2918 26.1356 32.3201 24.6678 32.3201ZM32.6131 41.1092L33.7997 36.3367H31.6639L30.9344 41.1092H32.6131ZM35.8124 29.534H37.9393C37.9393 28.242 38.9764 27.3104 40.3475 27.3104C41.6044 27.3104 42.4393 28.1541 42.4393 29.2615C42.4393 30.2108 42.0702 30.8436 40.4178 32.4695L35.9354 36.8817V38.4285H44.8475V36.574H38.9325V36.5301L41.7274 33.7879C43.9422 31.6082 44.6542 30.6238 44.6542 29.1209C44.6542 27.0818 42.9315 25.491 40.3475 25.491C37.7108 25.491 35.8124 27.1697 35.8124 29.534Z" fill="white"/>
</svg>
