<svg width="26" height="28" viewBox="0 0 26 28" fill="none" xmlns="http://www.w3.org/2000/svg">
<path d="M4.31714 8.8058C4.31714 3.94249 8.20459 0 13 0C17.7954 0 21.6829 3.94249 21.6829 8.8058V9.42573C21.6829 13.0909 22.7822 16.6693 24.8348 19.6859L25.8409 21.1644C26.2486 21.7636 25.8257 22.5806 25.1079 22.5806H0.892151C0.174334 22.5806 -0.248569 21.7636 0.159132 21.1644L1.16519 19.6859C3.21783 16.6693 4.31714 13.0909 4.31714 9.42573V8.8058Z" fill="#1C1C1C"/>
<path d="M13.4453 28C15.4128 28 17.0078 26.3824 17.0078 24.3871H9.88284C9.88284 26.3824 11.4778 28 13.4453 28Z" fill="#1C1C1C"/>
<path d="M10.3594 22.5806C10.9754 21.5007 12.1267 20.7742 13.4453 20.7742C14.7639 20.7742 15.9152 21.5007 16.5312 22.5806H10.3594Z" fill="#1C1C1C"/>
</svg>
