<svg width="255" height="79" viewBox="0 0 255 79" fill="none" xmlns="http://www.w3.org/2000/svg">
<path d="M254.211 13.7407C253.702 12.8767 252.963 12.1637 252.072 11.678C251.144 11.1714 250.096 10.9121 249.033 10.9262C247.98 10.9143 246.943 11.1736 246.025 11.678C245.131 12.1681 244.39 12.885 243.88 13.7527C243.357 14.646 243.087 15.6588 243.097 16.6874C243.084 17.6907 243.349 18.6789 243.864 19.5471C244.38 20.4153 245.126 21.1312 246.025 21.6187C246.943 22.123 247.98 22.3823 249.033 22.3704C250.096 22.3845 251.144 22.1252 252.072 21.6187C252.959 21.1362 253.698 20.43 254.211 19.574C254.74 18.6919 255.013 17.6855 255 16.6634C255.012 15.6374 254.74 14.6273 254.211 13.7407ZM253.113 19.0147C252.725 19.7034 252.146 20.2721 251.443 20.6565C250.708 21.047 249.885 21.2517 249.049 21.2517C248.212 21.2517 247.389 21.047 246.654 20.6565C245.948 20.2807 245.369 19.715 244.984 19.0267C244.571 18.309 244.359 17.4982 244.367 16.6754C244.356 15.8351 244.569 15.0063 244.984 14.2699C245.37 13.5767 245.949 13.0037 246.654 12.6161C247.377 12.2107 248.199 12.0029 249.033 12.0147C249.877 12.0008 250.71 12.2085 251.443 12.6161C252.148 13.0037 252.727 13.5767 253.113 14.2699C253.525 14.9947 253.737 15.8109 253.73 16.6393C253.742 17.4702 253.53 18.2896 253.113 19.0147Z" fill="#1C1C1C"/>
<path d="M251.391 16.4217C251.667 16.088 251.81 15.6679 251.794 15.239C251.801 14.9611 251.742 14.6854 251.623 14.433C251.503 14.1807 251.326 13.9585 251.105 13.7834C250.575 13.3815 249.913 13.1811 249.243 13.2194H246.759V19.6241H248.001V17.3436H249.007L250.385 19.6241H251.794L250.242 17.0949C250.688 16.9939 251.09 16.7584 251.391 16.4217ZM249.212 16.3065H248.032V14.2565H249.212C249.538 14.2411 249.861 14.3305 250.13 14.5112C250.244 14.5961 250.334 14.7068 250.394 14.8337C250.453 14.9605 250.48 15.0997 250.472 15.239C250.48 15.3889 250.452 15.5386 250.389 15.6757C250.327 15.8128 250.231 15.9334 250.112 16.0275C249.849 16.2248 249.523 16.3238 249.193 16.3065H249.212Z" fill="#1C1C1C"/>
<path d="M148.488 23.0037H138.173L121.284 41.3366V5.43198H113.079V62.2004H121.284V51.9195L127.543 45.3293L141.139 62.2004H151.535L133.089 39.3372L148.488 23.0037Z" fill="#1C1C1C"/>
<path d="M192.809 45.9544C192.863 47.2507 192.641 48.5438 192.159 49.7495C191.677 50.9552 190.945 52.0466 190.011 52.9529C189.068 53.8416 187.956 54.5349 186.741 54.9926C185.525 55.4502 184.231 55.6629 182.932 55.6184C181.62 55.6661 180.313 55.455 179.084 54.9975C177.855 54.54 176.73 53.8451 175.773 52.9529C174.841 52.0454 174.111 50.9536 173.63 49.7481C173.149 48.5426 172.927 47.2501 172.981 45.9544V22.8288H164.811V45.9544C164.811 51.0055 166.51 55.1275 169.906 58.3205C173.303 61.5134 177.645 63.1119 182.932 63.116C188.17 63.116 192.487 61.5175 195.884 58.3205C199.28 55.1235 200.978 51.0014 200.978 45.9544V22.8288H192.809V45.9544Z" fill="#1C1C1C"/>
<path d="M228.439 22.375C222.509 22.375 217.769 24.5769 214.221 28.9805V23.1433H206.014V77.7659H214.221V56.5641C217.761 60.9678 222.5 63.1696 228.439 63.1696C231.064 63.2252 233.671 62.7337 236.089 61.7276C238.506 60.7215 240.68 59.2236 242.467 57.3323C246.244 53.4448 248.133 48.6056 248.133 42.8147C248.133 37.0237 246.244 32.1704 242.467 28.2547C240.687 26.3521 238.515 24.8437 236.097 23.8299C233.678 22.8162 231.068 22.3202 228.439 22.375ZM235.982 52.0152C233.577 54.3775 230.316 55.7043 226.917 55.7043C223.517 55.7043 220.257 54.3775 217.851 52.0152C215.516 49.4798 214.222 46.1811 214.222 42.7602C214.222 39.3393 215.516 36.0406 217.851 33.5052C220.257 31.143 223.517 29.8161 226.917 29.8161C230.316 29.8161 233.577 31.143 235.982 33.5052C238.322 36.0387 239.618 39.3382 239.618 42.7602C239.618 46.1823 238.322 49.4817 235.982 52.0152Z" fill="#1C1C1C"/>
<path d="M8.24057 5.43198H0V62.2004H8.24057V5.43198Z" fill="#1C1C1C"/>
<g clip-path="url(#clip0_236_1207)">
<path d="M42.941 0.479903C22.6887 4.52202 18.5053 26.0242 24.5354 41.4969C30.3805 56.4898 28.9552 77.57 45.4353 78.9453C59.9795 80.1627 53.4697 61.3757 58.7974 39.9896C63.3474 21.6793 64.4678 -3.81666 42.941 0.479903Z" fill="#FFE475"/>
<path d="M44.6575 15.2312C44.6575 15.2312 44.0785 12.8059 46.1033 12.8059C48.1282 12.8059 47.5492 15.2312 47.5492 15.2312C47.5492 15.2312 60.7127 22.4168 60.5688 34.1792C60.4249 45.9416 52.5789 52.9404 52.5789 52.9404C52.5789 52.9404 51.1604 50.1126 52.6371 47.6036C55.2822 43.117 56.9575 39.4291 56.3785 34.3982C55.7995 29.3673 54.3228 24.6585 46.0588 20.2718C46.0588 20.2718 35.8008 23.0191 30.9047 32.5785C28.4173 37.4323 29.1916 41.2392 32.6452 46.0382C36.1297 50.8888 35.2594 52.9501 35.2594 52.9501C35.2594 52.9501 22.9662 46.1349 25.8579 33.8153C28.7496 21.4957 44.6575 15.2312 44.6575 15.2312Z" fill="white"/>
<path d="M80.0261 2.76667C99.2506 8.26459 101.389 29.3834 94.1798 43.8739C87.2006 57.9101 86.7073 78.4041 70.6624 78.446C56.495 78.4814 64.4575 60.825 61.1992 39.7287C58.4411 21.6664 59.606 -3.07588 80.0261 2.76667Z" fill="#FFE475"/>
<path d="M77.0693 16.8964C77.0693 16.8964 77.8471 14.5967 75.8873 14.4357C73.9275 14.2746 74.2735 16.6709 74.2735 16.6709C74.2735 16.6709 60.9114 22.5875 60.0034 33.9699C59.0955 45.3522 66.0678 52.7375 66.0678 52.7375C66.0678 52.7375 67.6884 50.1158 66.4824 47.5842C64.3239 43.0365 63.0322 39.339 64.0395 34.511C65.0468 29.683 66.9106 25.2544 75.2706 21.6599C75.2706 21.6599 84.9462 25.1223 88.8315 34.7493C90.805 39.6385 89.712 43.2555 85.9535 47.6326C82.1573 52.0515 82.8151 54.1128 82.8151 54.1128C82.8151 54.1128 95.307 48.4893 93.6042 36.3468C91.9014 24.2044 77.0693 16.8964 77.0693 16.8964Z" fill="white"/>
</g>
<defs>
<clipPath id="clip0_236_1207">
<rect width="76" height="79" fill="white" transform="translate(22)"/>
</clipPath>
</defs>
</svg>
