<svg width="31" height="26" viewBox="0 0 31 26" fill="none" xmlns="http://www.w3.org/2000/svg">
<path d="M15.1182 4.96727L15.5773 6.03168L16.0364 4.96727C17.1721 2.33414 19.7636 0.500587 22.7714 0.500587C26.7842 0.500587 29.7459 3.8625 30.121 7.99433L30.1234 8.02034L30.1279 8.04323L30.128 8.04374L30.128 8.04382L30.1282 8.0447L30.1285 8.04667C30.1288 8.0482 30.1291 8.05024 30.1296 8.05278C30.1303 8.05746 30.1313 8.06384 30.1325 8.07192C30.1362 8.09685 30.1416 8.13795 30.1471 8.19479C30.158 8.30846 30.1691 8.4852 30.1666 8.72178C30.1617 9.19465 30.1026 9.90811 29.8785 10.8362L29.8785 10.8362C29.27 13.3577 27.8374 15.6072 25.8956 17.3292C25.895 17.3297 25.8945 17.3302 25.894 17.3306L17.2561 24.8691C16.286 25.7157 14.8793 25.7097 13.9158 24.8544L5.44022 17.3302L5.43992 17.33C3.49741 15.6084 2.06411 13.3578 1.45545 10.8356L1.45544 10.8356C1.23143 9.90752 1.17228 9.19406 1.16734 8.72119C1.16487 8.48462 1.17596 8.30787 1.18689 8.1942C1.19235 8.13736 1.19778 8.09627 1.20146 8.07133C1.2033 8.05886 1.2047 8.05043 1.20545 8.04609L1.20594 8.04324L1.20596 8.04316L1.20606 8.04265L1.21058 8.01975L1.21295 7.99375C1.58809 3.86191 4.54981 0.5 8.56255 0.5C11.5577 0.5 13.9768 2.3211 15.1182 4.96727Z" stroke="white"/>
</svg>
