<svg width="71" height="68" viewBox="0 0 71 68" fill="none" xmlns="http://www.w3.org/2000/svg">
<path fill-rule="evenodd" clip-rule="evenodd" d="M46.5093 2H19C8.50659 2 0 10.5066 0 21V49C0 59.4934 8.50659 68 19 68H47C57.4934 68 66 59.4934 66 49V26.3915C65.3563 26.7052 64.6885 26.977 64 27.2032V49C64 58.3888 56.3888 66 47 66H19C9.61116 66 2 58.3888 2 49V21C2 11.6112 9.61116 4 19 4H45.1405C45.5467 3.29786 46.0047 2.62945 46.5093 2Z" fill="#1C1C1C"/>
<circle cx="59" cy="12" r="12" fill="#FFAE99"/>
</svg>
