<svg width="14" height="24" viewBox="0 0 14 24" fill="none" xmlns="http://www.w3.org/2000/svg">
<path d="M2 12L1.29289 11.2929L0.585786 12L1.29289 12.7071L2 12ZM13.7071 1.70711C14.0976 1.31658 14.0976 0.683417 13.7071 0.292893C13.3166 -0.0976311 12.6834 -0.0976311 12.2929 0.292893L13.7071 1.70711ZM12.2929 23.7071C12.6834 24.0976 13.3166 24.0976 13.7071 23.7071C14.0976 23.3166 14.0976 22.6834 13.7071 22.2929L12.2929 23.7071ZM2.70711 12.7071L13.7071 1.70711L12.2929 0.292893L1.29289 11.2929L2.70711 12.7071ZM13.7071 22.2929L2.70711 11.2929L1.29289 12.7071L12.2929 23.7071L13.7071 22.2929Z" fill="#1C1C1C"/>
</svg>
