<svg width="46" height="50" viewBox="0 0 46 50" fill="none" xmlns="http://www.w3.org/2000/svg">
<path d="M33.6025 10.6383C33.6025 16.5137 28.8556 21.2766 23 21.2766C17.1444 21.2766 12.3975 16.5137 12.3975 10.6383C12.3975 4.76293 17.1444 0 23 0C28.8556 0 33.6025 4.76293 33.6025 10.6383Z" fill="#85A0E5"/>
<path d="M40.697 27.0322C35.6259 29.9699 29.1415 28.2265 26.2137 23.1383C23.2859 18.0501 25.0234 11.5438 30.0945 8.60612C35.1656 5.66843 41.65 7.41179 44.5778 12.5C47.5056 17.5882 45.7681 24.0945 40.697 27.0322Z" fill="#85A0E5"/>
<path d="M33.6025 39.3617C33.6025 45.2371 28.8556 50 23 50C17.1444 50 12.3975 45.2371 12.3975 39.3617C12.3975 33.4863 17.1444 28.7234 23 28.7234C28.8556 28.7234 33.6025 33.4863 33.6025 39.3617Z" fill="#85A0E5"/>
<path d="M15.9055 41.3939C10.8344 44.3316 4.35006 42.5882 1.42227 37.5C-1.50553 32.4118 0.231955 25.9055 5.30304 22.9678C10.3741 20.0301 16.8585 21.7735 19.7863 26.8617C22.7141 31.9499 20.9766 38.4562 15.9055 41.3939Z" fill="#85A0E5"/>
<path d="M30.0945 41.3939C25.0234 38.4562 23.2859 31.95 26.2137 26.8617C29.1415 21.7735 35.6259 20.0302 40.697 22.9679C45.768 25.9055 47.5055 32.4118 44.5777 37.5C41.6499 42.5883 35.1656 44.3316 30.0945 41.3939Z" fill="#85A0E5"/>
<path d="M17.3386 35.4473C12.2675 32.5096 10.53 26.0034 13.4578 20.9151C16.3856 15.8269 22.87 14.0836 27.9411 17.0213C33.0122 19.9589 34.7497 26.4652 31.8219 31.5534C28.8941 36.6417 22.4097 38.385 17.3386 35.4473Z" fill="#85A0E5"/>
<path d="M5.30301 27.0322C0.231922 24.0945 -1.50556 17.5883 1.42223 12.5C4.35003 7.41182 10.8344 5.66847 15.9055 8.60615C20.9766 11.5438 22.7141 18.0501 19.7863 23.1383C16.8585 28.2266 10.3741 29.9699 5.30301 27.0322Z" fill="#85A0E5"/>
<path d="M12 25.5L20.3111 34L34 20" stroke="white" stroke-width="2" stroke-linecap="round"/>
</svg>
