<svg width="62" height="60" viewBox="0 0 62 60" fill="none" xmlns="http://www.w3.org/2000/svg">
<path d="M28.8912 1.08421C30.0598 -0.0708064 31.9402 -0.0708055 33.1088 1.08421L40.7084 8.59504C41.1832 9.0643 41.8009 9.36178 42.4638 9.44042L53.0743 10.6991C54.7059 10.8926 55.8783 12.3627 55.7039 13.9966L54.57 24.6211C54.4991 25.2848 54.6517 25.9533 55.0035 26.5206L60.635 35.6009C61.501 36.9973 61.0826 38.8305 59.6965 39.7128L50.6829 45.4505C50.1198 45.809 49.6923 46.3451 49.4681 46.9739L45.88 57.0382C45.3282 58.5859 43.6341 59.4018 42.08 58.8682L31.9742 55.3985C31.3428 55.1817 30.6572 55.1817 30.0258 55.3985L19.92 58.8682C18.3659 59.4018 16.6718 58.5859 16.12 57.0382L12.5319 46.9739C12.3077 46.3451 11.8802 45.809 11.3171 45.4505L2.30352 39.7128C0.917412 38.8305 0.498997 36.9973 1.365 35.6009L6.99646 26.5206C7.3483 25.9533 7.50087 25.2848 7.43002 24.6211L6.29606 13.9966C6.12168 12.3627 7.29405 10.8926 8.92573 10.6991L19.5362 9.44042C20.1991 9.36178 20.8168 9.0643 21.2916 8.59504L28.8912 1.08421Z" fill="#85A0E5"/>
</svg>
