<svg width="27" height="26" viewBox="0 0 27 26" fill="none" xmlns="http://www.w3.org/2000/svg">
<path d="M18.4809 1.45409L18.4809 1.45408C15.6993 0.344488 12.6031 0.197841 9.7211 1.03978L9.72107 1.03979C6.83952 1.88144 4.3541 3.65821 2.68612 6.06264L2.68609 6.06268C1.01801 8.46675 0.268683 11.3505 0.56238 14.2232L18.4809 1.45409ZM18.4809 1.45409C21.2625 2.56349 23.5539 4.5652 24.9687 7.11435L24.9687 7.11438C26.3835 9.66316 26.8358 12.6031 26.2509 15.4348C25.6657 18.2669 24.0784 20.82 21.7541 22.6568L21.7541 22.6568C19.43 24.4941 16.5128 25.5 13.5001 25.5H1.40862C1.05505 25.5 0.749457 25.2961 0.622033 25.0032C0.495985 24.7134 0.559978 24.3768 0.795813 24.1457C0.795848 24.1457 0.795882 24.1456 0.795916 24.1456L2.4183 22.5574L2.41833 22.5573C3.11 21.8801 3.17126 20.6813 2.51577 19.6855L2.51576 19.6855M18.4809 1.45409L2.51576 19.6855M2.51576 19.6855C1.43661 18.0462 0.76244 16.1774 0.562387 14.2233L2.51576 19.6855Z" fill="white" stroke="white"/>
</svg>
