<svg width="12" height="11" viewBox="0 0 12 11" fill="none" xmlns="http://www.w3.org/2000/svg">
<path d="M1.35355 0.146447C1.15829 -0.0488155 0.841709 -0.0488155 0.646447 0.146447C0.451184 0.341709 0.451184 0.658291 0.646447 0.853553L1.35355 0.146447ZM10.6464 10.8536C10.8417 11.0488 11.1583 11.0488 11.3536 10.8536C11.5488 10.6583 11.5488 10.3417 11.3536 10.1464L10.6464 10.8536ZM11.3536 0.853553C11.5488 0.658291 11.5488 0.341709 11.3536 0.146447C11.1583 -0.0488155 10.8417 -0.0488155 10.6464 0.146447L11.3536 0.853553ZM0.646447 10.1464C0.451184 10.3417 0.451184 10.6583 0.646447 10.8536C0.841709 11.0488 1.15829 11.0488 1.35355 10.8536L0.646447 10.1464ZM0.646447 0.853553L10.6464 10.8536L11.3536 10.1464L1.35355 0.146447L0.646447 0.853553ZM10.6464 0.146447L0.646447 10.1464L1.35355 10.8536L11.3536 0.853553L10.6464 0.146447Z" fill="#DDDDDD"/>
</svg>
