<svg width="14" height="14" viewBox="0 0 14 14" fill="none" xmlns="http://www.w3.org/2000/svg">
<path d="M7 0C3.13409 0 0 3.13377 0 7C0 10.8662 3.13409 14 7 14C10.8659 14 14 10.8662 14 7C14 3.13377 10.8659 0 7 0ZM10.4151 10.0909C10.3027 10.29 10.0959 10.402 9.88273 10.402C9.78304 10.402 9.68015 10.3771 9.58576 10.3246C8.71182 9.83458 7.7594 9.53442 6.75288 9.4325C5.74425 9.33142 4.74833 9.43377 3.79167 9.73923C3.47242 9.84115 3.12879 9.66477 3.02697 9.345C2.9241 9.0247 3.10121 8.68223 3.42152 8.57977C4.53727 8.2233 5.70075 8.10208 6.8759 8.2215C8.04893 8.34092 9.16045 8.69093 10.1808 9.2628C10.4745 9.42635 10.5795 9.79735 10.4151 10.0909ZM11.253 7.96473C11.1448 8.17292 10.9327 8.29235 10.7132 8.29235C10.6177 8.29235 10.5223 8.2705 10.4321 8.2233C9.35773 7.66373 8.19742 7.31723 6.9809 7.19377C5.75484 7.0683 4.54046 7.17765 3.36955 7.51535C3.04606 7.6072 2.70879 7.42223 2.61652 7.09885C2.52319 6.776 2.70984 6.43873 3.03227 6.3455C4.35378 5.96442 5.72409 5.84235 7.10394 5.98235C8.47424 6.12192 9.78304 6.51223 10.9953 7.14392C11.2923 7.2993 11.4089 7.6667 11.253 7.96473ZM11.5564 6.19585C11.4651 6.19585 11.3729 6.17527 11.2849 6.132C10.01 5.49627 8.63863 5.10035 7.20787 4.95515C5.775 4.80858 4.34955 4.92185 2.9697 5.2903C2.64515 5.37642 2.31212 5.18392 2.22515 4.85885C2.13818 4.5342 2.33122 4.20042 2.65682 4.11377C4.17879 3.70735 5.75273 3.58358 7.33197 3.74415C8.90909 3.90377 10.4215 4.34085 11.8279 5.04223C12.1291 5.1922 12.2511 5.558 12.1015 5.85858C11.9955 6.0725 11.7801 6.19585 11.5564 6.19585Z" fill="#62EA95"/>
</svg>
