<svg width="231" height="231" viewBox="0 0 231 231" fill="none" xmlns="http://www.w3.org/2000/svg">
<path opacity="0.1" d="M211 125.5C211 200.18 180.18 231 105.5 231C30.8202 231 0 200.18 0 125.5C0 50.8202 30.8202 20 105.5 20C180.18 20 211 50.8202 211 125.5Z" fill="#1C1C1C"/>
<g filter="url(#filter0_b_12_166)">
<path d="M231 107.5C231 182.18 200.18 213 125.5 213C50.8202 213 20 182.18 20 107.5C20 32.8202 50.8202 2 125.5 2C200.18 2 231 32.8202 231 107.5Z" fill="#1C1C1C" fill-opacity="0.2"/>
</g>
<path d="M73.8228 75.6519C73.6306 75.4537 73.314 75.4488 73.1158 75.6411C72.9176 75.8333 72.9127 76.1498 73.1049 76.3481L73.8228 75.6519ZM120.646 76.3802C120.856 76.2009 120.881 75.8853 120.702 75.6753C120.522 75.4653 120.207 75.4404 119.997 75.6198L120.646 76.3802ZM137.142 76L137.501 75.6519L136.796 74.9249L136.648 75.9267L137.142 76ZM184.325 76.3802C184.535 76.2009 184.56 75.8853 184.38 75.6753C184.201 75.4653 183.885 75.4404 183.675 75.6198L184.325 76.3802ZM149.958 138.423L149.861 138.913L151.281 139.194L150.337 138.097L149.958 138.423ZM115.212 131.041C114.941 130.988 114.678 131.164 114.625 131.435C114.571 131.706 114.747 131.969 115.018 132.022L115.212 131.041ZM71.5598 131.565C71.5781 131.289 71.3695 131.051 71.094 131.033C70.8184 131.015 70.5803 131.223 70.562 131.499L71.5598 131.565ZM99.2957 162.5C99.5718 162.5 99.7957 162.276 99.7957 162C99.7957 161.724 99.5718 161.5 99.2957 161.5V162.5ZM73.1049 76.3481C76.7062 80.0618 83.3897 84.5008 91.7802 85.7967C100.195 87.0964 110.286 85.2277 120.646 76.3802L119.997 75.6198C109.852 84.2831 100.052 86.0625 91.9328 84.8085C83.7897 83.5507 77.2969 79.2344 73.8228 75.6519L73.1049 76.3481ZM136.783 76.3481C140.385 80.0618 147.068 84.5008 155.459 85.7967C163.873 87.0964 173.964 85.2277 184.325 76.3802L183.675 75.6198C173.53 84.2831 163.731 86.0625 155.611 84.8085C147.468 83.5507 140.975 79.2344 137.501 75.6519L136.783 76.3481ZM136.648 75.9267C131.821 108.494 143.208 131.34 149.579 138.749L150.337 138.097C144.16 130.913 132.852 108.361 137.637 76.0733L136.648 75.9267ZM150.055 137.932L115.212 131.041L115.018 132.022L149.861 138.913L150.055 137.932ZM70.562 131.499C69.9364 140.946 74.1118 148.702 79.9284 154.084C85.7331 159.454 93.2156 162.5 99.2957 162.5V161.5C93.509 161.5 86.2603 158.579 80.6075 153.35C74.9665 148.131 70.9579 140.653 71.5598 131.565L70.562 131.499Z" fill="white"/>
<path d="M218.603 10.6383C218.603 16.5137 213.856 21.2766 208 21.2766C202.144 21.2766 197.398 16.5137 197.398 10.6383C197.398 4.76293 202.144 0 208 0C213.856 0 218.603 4.76293 218.603 10.6383Z" fill="#85A0E5"/>
<path d="M225.697 27.0322C220.626 29.9699 214.142 28.2265 211.214 23.1383C208.286 18.0501 210.023 11.5438 215.095 8.60612C220.166 5.66843 226.65 7.41179 229.578 12.5C232.506 17.5882 230.768 24.0945 225.697 27.0322Z" fill="#85A0E5"/>
<path d="M218.603 39.3617C218.603 45.2371 213.856 50 208 50C202.144 50 197.398 45.2371 197.398 39.3617C197.398 33.4863 202.144 28.7234 208 28.7234C213.856 28.7234 218.603 33.4863 218.603 39.3617Z" fill="#85A0E5"/>
<path d="M200.906 41.3939C195.834 44.3316 189.35 42.5882 186.422 37.5C183.494 32.4118 185.232 25.9055 190.303 22.9678C195.374 20.0301 201.859 21.7735 204.786 26.8617C207.714 31.9499 205.977 38.4562 200.906 41.3939Z" fill="#85A0E5"/>
<path d="M215.094 41.3939C210.023 38.4562 208.286 31.95 211.214 26.8617C214.141 21.7735 220.626 20.0302 225.697 22.9679C230.768 25.9055 232.506 32.4118 229.578 37.5C226.65 42.5883 220.166 44.3316 215.094 41.3939Z" fill="#85A0E5"/>
<path d="M202.339 35.4473C197.268 32.5096 195.53 26.0034 198.458 20.9151C201.386 15.8269 207.87 14.0836 212.941 17.0213C218.012 19.9589 219.75 26.4652 216.822 31.5534C213.894 36.6417 207.41 38.385 202.339 35.4473Z" fill="#85A0E5"/>
<path d="M190.303 27.0322C185.232 24.0945 183.494 17.5883 186.422 12.5C189.35 7.41182 195.834 5.66847 200.905 8.60615C205.977 11.5438 207.714 18.0501 204.786 23.1383C201.858 28.2266 195.374 29.9699 190.303 27.0322Z" fill="#85A0E5"/>
<path d="M197 25.5L205.311 34L219 20" stroke="white" stroke-width="2" stroke-linecap="round"/>
<defs>
<filter id="filter0_b_12_166" x="-4" y="-22" width="259" height="259" filterUnits="userSpaceOnUse" color-interpolation-filters="sRGB">
<feFlood flood-opacity="0" result="BackgroundImageFix"/>
<feGaussianBlur in="BackgroundImageFix" stdDeviation="12"/>
<feComposite in2="SourceAlpha" operator="in" result="effect1_backgroundBlur_12_166"/>
<feBlend mode="normal" in="SourceGraphic" in2="effect1_backgroundBlur_12_166" result="shape"/>
</filter>
</defs>
</svg>
