<svg width="11" height="12" viewBox="0 0 11 12" fill="none" xmlns="http://www.w3.org/2000/svg">
<path d="M3.02933 4.18687C3.12546 4.05619 3.26924 3.9688 3.42948 3.94361C3.58972 3.91843 3.75341 3.95753 3.8849 4.05247L5.87302 5.50697V5.50688C6.00433 5.60155 6.09245 5.74479 6.11765 5.90465C6.14293 6.06453 6.10328 6.22786 6.00752 6.35835C5.89385 6.51758 5.71006 6.61171 5.51453 6.61099C5.38521 6.61244 5.25907 6.57088 5.15605 6.49286L3.16384 5.04245H3.16375C3.03225 4.94705 2.94404 4.8032 2.91883 4.64258C2.89365 4.48207 2.93339 4.31801 3.02933 4.18687ZM5.51454 0.520168C5.35594 0.520077 5.20354 0.581643 5.08948 0.691863C4.97545 0.802174 4.9087 0.952397 4.90342 1.11091V2.74056C4.90342 2.95891 5.01991 3.16061 5.20898 3.26982C5.39804 3.37895 5.63103 3.37895 5.82009 3.26982C6.00916 3.1606 6.12565 2.95891 6.12565 2.74056V1.76687C7.04815 1.90273 7.90089 2.33697 8.55336 3.00303C9.20594 3.66916 9.62245 4.53063 9.7393 5.45588C9.85625 6.381 9.667 7.31896 9.20065 8.1264C8.73431 8.93384 8.01644 9.56652 7.15668 9.92755C6.29693 10.2887 5.34261 10.3583 4.4396 10.1261C3.53647 9.89372 2.73429 9.37218 2.15556 8.64103C1.57683 7.90987 1.25334 7.00938 1.23453 6.07713C1.2158 5.14481 1.50273 4.23204 2.05154 3.47808C2.14776 3.34803 2.18804 3.18506 2.16358 3.0252C2.13912 2.86532 2.05182 2.72183 1.92114 2.62661C1.79237 2.53076 1.63132 2.48901 1.47226 2.51039C1.31312 2.53167 1.16871 2.61433 1.06967 2.74065C0.337145 3.73643 -0.0386044 4.94993 0.00313777 6.18548C0.0447892 7.4209 0.501483 8.60644 1.2995 9.55047C2.09749 10.4946 3.19033 11.1424 4.40164 11.3892C5.61286 11.6361 6.87195 11.4677 7.97592 10.9112C9.07974 10.3547 9.96397 9.44261 10.4858 8.32193C11.0077 7.20136 11.1368 5.93752 10.8525 4.73461C10.568 3.53156 9.8866 2.45946 8.91818 1.69113C7.94966 0.92287 6.75063 0.503283 5.51455 0.5L5.51454 0.520168Z" fill="white"/>
</svg>
